<svg xmlns="http://www.w3.org/2000/svg" width="900" height="360" viewBox="0 0 900 360" role="img" aria-label="Alistra GIS logo">
  <defs>
    <linearGradient id="markGradient" x1="72" y1="42" x2="252" y2="282" gradientUnits="userSpaceOnUse">
      <stop offset="0" stop-color="#38bdf8"/>
      <stop offset="0.48" stop-color="#0ea5e9"/>
      <stop offset="1" stop-color="#2563eb"/>
    </linearGradient>
    <filter id="softShadow" x="-20%" y="-20%" width="140%" height="140%">
      <feDropShadow dx="0" dy="16" stdDeviation="18" flood-color="#001326" flood-opacity="0.18"/>
    </filter>
  </defs>

  <rect width="900" height="360" rx="28" fill="#ffffff"/>
  <g filter="url(#softShadow)">
    <rect x="48" y="48" width="264" height="264" rx="34" fill="#001326"/>
    <path d="M177 84c-52 0-94 42-94 94s42 94 94 94c38 0 71-22 86-54h-51c-9 9-21 15-35 15-30 0-55-25-55-55s25-55 55-55c16 0 31 7 41 18l-39 37h104V74l-36 35c-18-16-42-25-70-25Z" fill="url(#markGradient)"/>
    <circle cx="177" cy="178" r="18" fill="#22c55e"/>
    <path d="M177 178h72M177 178l-48-42M177 178l-46 50" fill="none" stroke="#e0f2fe" stroke-width="12" stroke-linecap="round"/>
    <circle cx="249" cy="178" r="9" fill="#facc15"/>
    <circle cx="129" cy="136" r="9" fill="#facc15"/>
    <circle cx="131" cy="228" r="9" fill="#facc15"/>
  </g>

  <text x="352" y="155" fill="#003b70" font-family="Arial, Helvetica, sans-serif" font-size="72" font-weight="800" letter-spacing="0">ALISTRA</text>
  <text x="352" y="235" fill="#0284c7" font-family="Arial, Helvetica, sans-serif" font-size="72" font-weight="800" letter-spacing="0">GIS</text>
  <text x="356" y="282" fill="#334155" font-family="Arial, Helvetica, sans-serif" font-size="24" font-weight="700" letter-spacing="0">ENGINEERING DELIVERY PACKS</text>
</svg>
