<svg xmlns="http://www.w3.org/2000/svg" width="420mm" height="297mm" viewBox="0 0 420 297" role="img" aria-label="Alistra GIS A3 job pack layout">
  <rect x="0" y="0" width="420" height="297" fill="#ffffff"/>
  <rect x="6" y="6" width="408" height="285" fill="#ffffff" stroke="#0f172a" stroke-width="0.7"/>

  <rect x="6" y="6" width="408" height="24" fill="#001326"/>
  <text x="14" y="21" fill="#ffffff" font-family="Arial, Helvetica, sans-serif" font-size="9" font-weight="800">ALISTRA GIS</text>
  <text x="14" y="27" fill="#7dd3fc" font-family="Arial, Helvetica, sans-serif" font-size="4.2" font-weight="700">ENGINEERING DELIVERY JOB PACK</text>
  <text x="278" y="20" fill="#ffffff" font-family="Arial, Helvetica, sans-serif" font-size="6.2" font-weight="700">PROJECT:</text>
  <text x="318" y="20" fill="#ffffff" font-family="Arial, Helvetica, sans-serif" font-size="6.2" font-weight="800">BD-BAS-AG1</text>
  <text x="278" y="27" fill="#ffffff" font-family="Arial, Helvetica, sans-serif" font-size="5.2" font-weight="700">PAGE:</text>
  <text x="318" y="27" fill="#ffffff" font-family="Arial, Helvetica, sans-serif" font-size="5.2" font-weight="800">ROUTE SHEET</text>

  <rect x="12" y="37" width="318" height="236" fill="#f8fafc" stroke="#334155" stroke-width="0.45"/>
  <text x="18" y="49" fill="#94a3b8" font-family="Arial, Helvetica, sans-serif" font-size="10" font-weight="800">MAP FRAME</text>

  <rect x="336" y="37" width="72" height="236" fill="#ffffff" stroke="#334155" stroke-width="0.45"/>
  <rect x="336" y="37" width="72" height="13" fill="#f1f5f9" stroke="#334155" stroke-width="0.25"/>
  <text x="341" y="46" fill="#0f172a" font-family="Arial, Helvetica, sans-serif" font-size="5.3" font-weight="800">SHEET INFO</text>

  <g font-family="Arial, Helvetica, sans-serif" fill="#0f172a">
    <text x="341" y="61" font-size="4.4" font-weight="800">PROJECT CODE</text>
    <rect x="341" y="64" width="60" height="9" fill="#ffffff" stroke="#cbd5e1" stroke-width="0.25"/>
    <text x="343" y="70" font-size="4.2">BD-BAS-AG1</text>

    <text x="341" y="82" font-size="4.4" font-weight="800">AREA</text>
    <rect x="341" y="85" width="60" height="9" fill="#ffffff" stroke="#cbd5e1" stroke-width="0.25"/>
    <text x="343" y="91" font-size="4.2">Baildon South</text>

    <text x="341" y="103" font-size="4.4" font-weight="800">LAYOUT</text>
    <rect x="341" y="106" width="60" height="9" fill="#ffffff" stroke="#cbd5e1" stroke-width="0.25"/>
    <text x="343" y="112" font-size="4.2">Route Page</text>

    <text x="341" y="124" font-size="4.4" font-weight="800">PLANNER</text>
    <rect x="341" y="127" width="60" height="9" fill="#ffffff" stroke="#cbd5e1" stroke-width="0.25"/>
    <text x="343" y="133" font-size="4.2">Alistra GIS</text>

    <text x="341" y="145" font-size="4.4" font-weight="800">DATE</text>
    <rect x="341" y="148" width="60" height="9" fill="#ffffff" stroke="#cbd5e1" stroke-width="0.25"/>
    <text x="343" y="154" font-size="4.2">03/07/2026</text>
  </g>

  <rect x="341" y="168" width="60" height="68" fill="#ffffff" stroke="#cbd5e1" stroke-width="0.25"/>
  <text x="347" y="177" fill="#0f172a" font-family="Arial, Helvetica, sans-serif" font-size="5.5" font-weight="800">MAP LEGEND</text>
  <g font-family="Arial, Helvetica, sans-serif" font-size="3.9" fill="#0f172a" font-weight="700">
    <path d="M346 187h16" stroke="#9652e1" stroke-width="1.5"/><text x="366" y="188.5">Boundary</text>
    <path d="M346 197h16" stroke="#2563eb" stroke-width="1.5" stroke-dasharray="3 2"/><text x="366" y="198.5">96F</text>
    <path d="M346 207h16" stroke="#06b6d4" stroke-width="1.4" stroke-dasharray="3 2"/><text x="366" y="208.5">48F</text>
    <path d="M346 217h16" stroke="#f97316" stroke-width="1.2" stroke-dasharray="3 2"/><text x="366" y="218.5">12F</text>
    <circle cx="354" cy="227" r="2.2" fill="#facc15" stroke="#0f172a" stroke-width="0.6"/><text x="366" y="228.5">DP / Closure</text>
  </g>

  <text x="342" y="257" fill="#003b70" font-family="Arial, Helvetica, sans-serif" font-size="13" font-weight="800">ALISTRA</text>
  <text x="342" y="270" fill="#0284c7" font-family="Arial, Helvetica, sans-serif" font-size="13" font-weight="800">GIS</text>

  <rect x="12" y="277" width="318" height="10" fill="#f8fafc" stroke="#cbd5e1" stroke-width="0.25"/>
  <text x="16" y="284" fill="#475569" font-family="Arial, Helvetica, sans-serif" font-size="4.2" font-weight="700">Homes plotted without UPRN labels. Routes and fibre allocations to be reviewed before issue.</text>
</svg>
